<?xml version="1.0" standalone="no"?>
<!DOCTYPE svg PUBLIC "-//W3C//DTD SVG 20010904//EN"
 "http://www.w3.org/TR/2001/REC-SVG-20010904/DTD/svg10.dtd">
<svg version="1.0" xmlns="http://www.w3.org/2000/svg"
 width="500.000000pt" height="500.000000pt" viewBox="0 0 500.000000 500.000000"
 preserveAspectRatio="xMidYMid meet">

<g transform="translate(0.000000,500.000000) scale(0.100000,-0.100000)"
fill="#000000" stroke="none">
<path d="M2640 3633 c-35 -14 -68 -64 -72 -114 -3 -27 -8 -52 -12 -56 -3 -3
-24 -6 -47 -5 -22 1 -52 -4 -67 -12 -18 -9 -35 -11 -50 -5 -13 5 -57 5 -100 0
-42 -4 -81 -6 -87 -2 -5 3 -71 10 -145 16 -123 10 -138 9 -173 -8 -49 -23 -74
-49 -98 -100 -27 -60 -25 -73 6 -53 13 9 30 16 36 16 7 0 19 7 28 15 45 41 57
53 67 71 10 18 14 17 90 -10 43 -15 115 -33 159 -38 44 -6 87 -16 96 -24 8 -8
33 -14 54 -14 33 0 44 -7 82 -47 51 -56 59 -79 43 -127 -6 -20 -10 -63 -7 -95
3 -45 1 -61 -9 -65 -8 -3 -14 -12 -14 -21 0 -8 -6 -15 -13 -15 -20 0 -52 -39
-49 -60 2 -10 -4 -20 -12 -23 -9 -4 -13 -13 -10 -21 3 -8 -1 -25 -10 -38 -43
-61 19 -178 94 -178 16 0 20 -7 20 -33 0 -18 -4 -37 -8 -42 -5 -6 -19 -39 -32
-75 -14 -42 -34 -76 -56 -96 -24 -22 -34 -40 -34 -61 0 -38 -24 -66 -70 -83
-47 -18 -122 -107 -154 -185 -16 -38 -70 -98 -79 -88 -4 3 -12 1 -19 -4 -7 -6
-26 -13 -42 -17 -39 -10 -73 -33 -79 -56 -3 -11 -1 -20 4 -20 9 0 5 -93 -6
-110 -3 -5 -1 -10 4 -10 6 0 11 -7 11 -15 0 -8 5 -15 11 -15 6 0 9 -6 6 -13
-6 -16 51 -44 62 -31 5 5 14 32 21 59 18 69 28 85 50 85 19 0 24 10 20 39 -1
7 11 27 27 43 33 35 167 138 179 138 10 0 55 54 73 88 14 27 28 28 50 4 9 -9
28 -23 43 -31 37 -19 61 -1 47 35 -23 62 -10 110 39 146 28 20 88 99 111 146
12 23 26 42 31 42 5 0 25 14 44 30 18 17 50 37 70 45 21 9 47 32 62 55 24 36
25 43 14 69 -7 17 -23 37 -36 46 -14 9 -24 25 -24 39 0 13 -7 42 -15 66 -16
46 -12 60 29 98 16 15 26 38 31 71 4 34 14 55 31 70 13 11 24 29 24 39 0 10 6
38 14 63 8 24 17 56 20 70 8 35 73 54 159 46 68 -5 134 9 149 33 7 11 4 26
-12 52 -17 30 -34 42 -90 63 -66 25 -85 41 -131 107 -21 30 -120 81 -132 69
-6 -6 -2 -23 12 -46 27 -46 26 -47 -4 -33 -14 6 -28 8 -33 3 -4 -4 -1 -10 7
-13 8 -3 30 -20 50 -39 33 -31 34 -34 11 -27 -14 4 -43 10 -65 13 l-39 6 -1
67 c0 56 -4 70 -24 92 -20 21 -33 26 -70 25 -25 0 -53 -3 -61 -6z"/>
<path d="M2579 1967 c-90 -60 -88 -181 4 -237 90 -55 207 12 207 120 0 110
-121 177 -211 117z"/>
<path d="M1278 1422 c-23 -3 -28 -9 -29 -33 -1 -16 -2 -41 -4 -56 -1 -16 -3
-59 -5 -98 l-3 -70 29 3 c16 2 30 4 30 5 7 8 22 243 16 247 -4 3 -19 4 -34 2z"/>
<path d="M2594 1419 c-36 -10 -69 -44 -77 -80 -9 -34 18 -73 46 -65 27 7 57
-10 57 -33 0 -20 -44 -41 -86 -41 -31 0 -32 -30 -1 -31 88 -4 131 13 148 59
12 32 -5 72 -32 72 -26 0 -67 21 -73 37 -9 22 16 53 48 61 16 4 31 13 34 20 4
14 -19 14 -64 1z"/>
<path d="M1511 1388 c0 -13 -3 -67 -7 -120 l-6 -98 63 0 c76 0 109 8 109 25 0
9 -18 12 -57 11 l-58 -1 1 30 c0 17 4 63 9 103 l8 72 -31 0 c-24 0 -30 -4 -31
-22z"/>
<path d="M1934 1345 c-3 -8 15 -53 41 -100 38 -71 50 -86 68 -83 37 5 120 175
90 185 -4 2 -21 -26 -38 -62 -16 -36 -33 -65 -36 -65 -4 0 -20 32 -38 70 -26
60 -35 70 -56 70 -14 0 -28 -7 -31 -15z"/>
<path d="M2218 1335 c-41 -28 -52 -52 -43 -95 12 -54 82 -86 139 -64 32 12 17
30 -23 26 -26 -3 -40 1 -44 10 -4 11 11 20 54 32 66 20 75 38 37 80 -35 37
-76 41 -120 11z m66 -21 c25 -10 19 -32 -14 -49 -39 -20 -40 -20 -40 13 0 41
15 51 54 36z"/>
<path d="M3470 1337 c-45 -27 -50 -35 -50 -77 0 -40 5 -50 40 -73 38 -26 120
-21 120 7 0 8 -15 12 -41 12 -61 -1 -57 17 8 39 66 23 75 41 41 78 -33 35 -76
41 -118 14z m70 -32 c15 -18 9 -25 -32 -43 -24 -10 -28 -9 -33 9 -13 40 38 66
65 34z"/>
<path d="M1739 1337 c-20 -15 -49 -81 -49 -111 1 -54 48 -74 123 -52 49 14 55
19 65 54 22 74 11 102 -40 102 -15 0 -28 5 -28 10 0 14 -52 12 -71 -3z m86
-48 c12 -38 -4 -88 -30 -95 -32 -8 -45 2 -45 32 0 63 60 113 75 63z"/>
<path d="M2773 1333 c-26 -23 -47 -94 -39 -127 12 -47 78 -56 148 -20 19 10
31 27 38 56 16 57 1 88 -40 88 -16 0 -30 5 -30 10 0 17 -56 11 -77 -7z m91
-56 c14 -39 -10 -81 -47 -85 -17 -2 -27 2 -28 10 -5 56 21 111 49 106 9 -2 21
-16 26 -31z"/>
<path d="M3031 1311 c-41 -37 -45 -45 -45 -88 -1 -45 0 -47 32 -54 35 -7 121
7 137 23 7 7 -8 9 -47 4 -55 -6 -58 -5 -64 18 -6 27 29 105 49 107 6 1 23 0
36 -1 15 -1 22 3 19 12 -3 7 -20 14 -39 16 -28 2 -42 -4 -78 -37z"/>
<path d="M3262 1313 c-45 -41 -68 -94 -52 -123 12 -22 61 -30 114 -18 64 14
71 32 9 24 -46 -6 -52 -4 -58 14 -9 28 12 87 36 104 11 8 29 12 40 9 13 -4 19
0 19 11 0 11 -9 16 -33 16 -25 0 -45 -10 -75 -37z"/>
<path d="M3665 1342 c-5 -4 -11 -46 -13 -94 l-4 -88 30 0 c29 0 29 1 36 71 6
53 11 71 24 75 29 9 46 20 50 32 6 18 -33 15 -49 -4 -11 -14 -13 -14 -21 0 -9
17 -36 21 -53 8z"/>
</g>
</svg>
